<svg width="156" height="145" fill="none" xmlns="http://www.w3.org/2000/svg"><path d="M12.2 132.4l-1.402 1.426.011.011.012.012L12.2 132.4zm0-120.2l1.378 1.45v-.001L12.2 12.2zm66.8 0l-1.379 1.449.012.011.012.011L79 12.2zm0 120.2l1.379 1.449v-.001L79 132.4zM62.2 118l1.39 1.437.013-.011.011-.012L62.2 118zm0-91.4l-1.414 1.414.011.012.012.011L62.2 26.6zm-33 0l1.414 1.414L29.2 26.6zm0 91.4l-1.437 1.391.023.023.023.023L29.2 118zm16.4 24.2c-13.61 0-24.207-3.812-32.021-11.249l-2.758 2.898C19.541 142.146 31.21 146.2 45.6 146.2v-4zm-31.998-11.226C5.92 123.417 2 113.235 2 100.2h-4c0 13.898 4.213 25.183 12.797 33.626l2.805-2.852zM2 100.2V43.8h-4v56.4h4zm0-56.4c0-12.897 3.916-22.865 11.578-30.15l-2.756-2.9C2.217 18.933-2 30.03-2 43.8h4zm11.579-30.151C21.393 6.212 31.99 2.4 45.6 2.4v-4c-14.39 0-26.06 4.054-34.779 12.351l2.758 2.898zM45.6 2.4c13.61 0 24.207 3.812 32.021 11.249l2.758-2.898C71.659 2.454 59.99-1.6 45.6-1.6v4zm32.045 11.271C85.565 20.961 89.6 30.923 89.6 43.8h4c0-13.79-4.364-24.895-13.245-33.071l-2.71 2.942zM89.6 43.8v56.4h4V43.8h-4zm0 56.4c0 13.015-4.04 23.191-11.98 30.752l2.76 2.896c8.86-8.439 13.22-19.73 13.22-33.648h-4zm-11.979 30.751C69.807 138.388 59.21 142.2 45.6 142.2v4c14.39 0 26.06-4.054 34.779-12.351l-2.758-2.898zM45.6 126c7.339 0 13.41-2.13 17.99-6.563l-2.78-2.874C57.122 120.13 52.127 122 45.6 122v4zm18.014-6.586c4.578-4.577 6.786-10.656 6.786-18.014h-4c0 6.509-1.925 11.496-5.614 15.186l2.828 2.828zM70.4 101.4V43h-4v58.4h4zm0-58.4c0-7.356-2.208-13.385-6.81-17.837l-2.78 2.874C64.474 31.585 66.4 36.49 66.4 43h4zm-6.786-17.814C59.037 20.608 52.958 18.4 45.6 18.4v4c6.509 0 11.496 1.925 15.186 5.614l2.828-2.828zM45.6 18.4c-7.237 0-13.244 2.216-17.814 6.786l2.828 2.828C34.311 24.317 39.237 22.4 45.6 22.4v-4zm-17.814 6.786C23.329 29.642 21.2 35.663 21.2 43h4c0-6.53 1.87-11.442 5.414-14.986l-2.828-2.828zM21.2 43v58.4h4V43h-4zm0 58.4c0 7.339 2.13 13.41 6.563 17.991l2.874-2.782c-3.567-3.686-5.437-8.681-5.437-15.209h-4zm6.61 18.037C32.381 123.863 38.381 126 45.6 126v-4c-6.382 0-11.316-1.863-15.01-5.437l-2.78 2.874zM131.351 2.6l-.703-1.873-.098.037-.094.047.895 1.789zm23.8.2l-1.6 1.2.171.229.229.171 1.2-1.6zm0 138.6l-1.415-1.414 1.415 1.414zm-21.8 0l-1.6 1.2.171.229.229.171 1.2-1.6zm-1-116l-1.415 1.414.23.23.29.145.895-1.789zm-.8-.2l.592 1.91.156-.048.146-.073-.894-1.789zm-20 6.2l-.593-1.91-.156.048-.146.073.895 1.789zm-2.4-.4l-1.665 1.11.11.164.14.14L109.152 31zm-.4-1.6h2v-.045l-.002-.046-1.998.091zm-.6-13.2h-2v.045l.002.046 1.998-.091zm1.6-2.8l.894 1.789-.894-1.789zm22.302-8.927c.89-.334 1.65-.473 2.298-.473V0c-1.22 0-2.459.261-3.703.727l1.405 3.746zM134.352 4h19.2V0h-19.2v4zm19.2 0c.033 0 .045.003.041.002a.18.18 0 01-.068-.034c-.003-.002.007.006.027.032l3.2-2.4a3.898 3.898 0 00-3.2-1.6v4zm.4.4c.026.02.034.03.031.027l-.008-.011a.189.189 0 01-.012-.022c-.004-.008-.008-.015-.01-.022l-.004-.013c-.001-.004.003.008.003.041h4a3.897 3.897 0 00-1.6-3.2l-2.4 3.2zm0 0v135.2h4V4.4h-4zm0 135.2c0 .065-.003.174-.215.386l2.829 2.828c.854-.854 1.386-1.946 1.386-3.214h-4zm-.215.386l.008-.006c.006-.004.008-.004.004-.003a.585.585 0 01-.197.023v4c1.095 0 2.172-.344 3.014-1.186l-2.829-2.828zm-.185.014h-18.4v4h18.4v-4zm-18.4 0a.93.93 0 01-.6-.2l-2.4 3.2c.879.66 1.9 1 3 1v-4zm-.2.2a.925.925 0 01-.2-.6h-4c0 1.099.34 2.12 1 3l3.2-2.4zm-.2-.6V26h-4v113.6h4zm0-113.6c0-.483-.127-.995-.436-1.46a2.748 2.748 0 00-1.07-.929l-1.789 3.578a1.26 1.26 0 01-.47-.43 1.385 1.385 0 01-.235-.759h4zm-.986-2.014a2.874 2.874 0 00-1.329-.776 2.565 2.565 0 00-1.78.201l1.789 3.578a1.439 1.439 0 01-.98.101 1.16 1.16 0 01-.529-.276l2.829-2.828zm-2.807-.696l-20 6.2 1.185 3.82 20-6.2-1.185-3.82zm-20.302 6.321c.046-.023.069-.025.052-.022a.84.84 0 01-.157.011v4c.609 0 1.271-.1 1.894-.411l-1.789-3.578zm-.105-.011c-.008 0-.006 0 .004.001a.148.148 0 01.033.01l.012.006.001.001c-.002-.002-.015-.01-.036-.032l-2.829 2.828c.75.75 1.716 1.186 2.815 1.186v-4zm.264.29c.022.034-.064-.07-.064-.49h-4c0 .914.18 1.877.735 2.71l3.329-2.22zm-.066-.58l-.6-13.2-3.996.18.6 13.2 3.996-.18zm-.598-13.11c0-.401.079-.608.136-.708.05-.087.138-.193.358-.303l-1.789-3.578c-.846.423-1.558 1.05-2.042 1.897-.476.833-.663 1.76-.663 2.692h4zm.494-1.011l21.6-10.8L130.457.81l-21.6 10.8 1.789 3.578z" fill="#B4977B"/></svg>