<svg width="204" height="145" fill="none" xmlns="http://www.w3.org/2000/svg"><path d="M12.2 132.4l-1.402 1.426.011.011.012.012L12.2 132.4zm0-120.2l1.378 1.45v-.001L12.2 12.2zm66.8 0l-1.379 1.449.012.011.012.011L79 12.2zm0 120.2l1.379 1.449v-.001L79 132.4zM62.2 118l1.39 1.437.013-.011.011-.012L62.2 118zm0-91.4l-1.414 1.414.011.012.012.011L62.2 26.6zm-33 0l1.414 1.414L29.2 26.6zm0 91.4l-1.437 1.391.023.023.023.023L29.2 118zm16.4 24.2c-13.61 0-24.207-3.812-32.021-11.249l-2.758 2.898C19.541 142.146 31.21 146.2 45.6 146.2v-4zm-31.998-11.226C5.92 123.417 2 113.235 2 100.2h-4c0 13.898 4.213 25.183 12.797 33.626l2.805-2.852zM2 100.2V43.8h-4v56.4h4zm0-56.4c0-12.897 3.916-22.865 11.578-30.15l-2.756-2.9C2.217 18.933-2 30.03-2 43.8h4zm11.579-30.151C21.393 6.212 31.99 2.4 45.6 2.4v-4c-14.39 0-26.06 4.054-34.779 12.351l2.758 2.898zM45.6 2.4c13.61 0 24.207 3.812 32.021 11.249l2.758-2.898C71.659 2.454 59.99-1.6 45.6-1.6v4zm32.045 11.271C85.565 20.961 89.6 30.923 89.6 43.8h4c0-13.79-4.364-24.895-13.245-33.071l-2.71 2.942zM89.6 43.8v56.4h4V43.8h-4zm0 56.4c0 13.015-4.04 23.191-11.98 30.752l2.76 2.896c8.86-8.439 13.22-19.73 13.22-33.648h-4zm-11.979 30.751C69.807 138.388 59.21 142.2 45.6 142.2v4c14.39 0 26.06-4.054 34.779-12.351l-2.758-2.898zM45.6 126c7.339 0 13.41-2.13 17.99-6.563l-2.78-2.874C57.122 120.13 52.127 122 45.6 122v4zm18.014-6.586c4.578-4.577 6.786-10.656 6.786-18.014h-4c0 6.509-1.925 11.496-5.614 15.186l2.828 2.828zM70.4 101.4V43h-4v58.4h4zm0-58.4c0-7.356-2.208-13.385-6.81-17.837l-2.78 2.874C64.474 31.585 66.4 36.49 66.4 43h4zm-6.786-17.814C59.037 20.608 52.958 18.4 45.6 18.4v4c6.509 0 11.496 1.925 15.186 5.614l2.828-2.828zM45.6 18.4c-7.237 0-13.244 2.216-17.814 6.786l2.828 2.828C34.311 24.317 39.237 22.4 45.6 22.4v-4zm-17.814 6.786C23.329 29.642 21.2 35.663 21.2 43h4c0-6.53 1.87-11.442 5.414-14.986l-2.828-2.828zM21.2 43v58.4h4V43h-4zm0 58.4c0 7.339 2.13 13.41 6.563 17.991l2.874-2.782c-3.567-3.686-5.437-8.681-5.437-15.209h-4zm6.61 18.037C32.381 123.863 38.381 126 45.6 126v-4c-6.382 0-11.316-1.863-15.01-5.437l-2.78 2.874zm115.862 1.363l1.414 1.414.035-.035.034-.037-1.483-1.342zm-.4.8h-2v.472l.211.422 1.789-.894zm59.4 1.2l-1.6 1.2.171.229.229.171 1.2-1.6zm0 18.6l-1.414-1.414 1.414 1.414zm-89.4 0l-1.6 1.2.171.229.229.171 1.2-1.6zm.6-19.2l1.414 1.414.023-.022.021-.024-1.458-1.368zm35.2-39.8l-1.521-1.3-.005.007 1.526 1.293zm9.4-11l-1.517-1.304-.004.005 1.521 1.299zm12.6-45.8l-1.335 1.49 1.335-1.49zm-30 0l-1.335-1.49-.013.012-.013.012 1.361 1.466zm-6.4 20.8l1.414 1.414-1.414-1.414zm-22 0l-1.6 1.2.171.229.229.171 1.2-1.6zm-.6-10.4l-1.999-.074-.001.037V36h2zm6.2-18.8l1.619 1.174-1.619-1.174zm15.6-12.4l-.806-1.83-.006.002-.007.003.819 1.825zm45.6.6l-.895 1.789.895-1.789zm15.4 13.8l-1.705 1.046.006.009.005.009 1.694-1.064zm-12 57.2l-1.552-1.262-.005.006-.005.007 1.562 1.249zm-31.6 36l-1.474-1.351-.009.009 1.483 1.342zm-9.014 6.986c-.485.484-.986 1.23-.986 2.214h4c0 .451-.235.663-.186.614l-2.828-2.828zm-.775 3.108c.589 1.178 1.733 1.506 2.589 1.506v-4a.94.94 0 01.394.111c.254.127.468.341.595.595l-3.578 1.788zm2.589 1.506h57v-4h-57v4zm57 0c.033 0 .045.003.041.002a.178.178 0 01-.057-.025l-.011-.008c-.003-.003.007.005.027.031l3.2-2.4a3.898 3.898 0 00-3.2-1.6v4zm.4.4c.026.02.034.03.031.027l-.008-.011a.391.391 0 01-.022-.044l-.004-.013c0-.004.003.008.003.041h4a3.898 3.898 0 00-1.6-3.2l-2.4 3.2zm0 0v15.2h4v-15.2h-4zm0 15.2c0 .065-.002.174-.214.386l2.828 2.828c.855-.854 1.386-1.946 1.386-3.214h-4zm-.214.386l.007-.006c.006-.004.009-.004.005-.003a.6.6 0 01-.198.023v4c1.095 0 2.173-.344 3.014-1.186l-2.828-2.828zm-.186.014h-86v4h86v-4zm-86 0a.93.93 0 01-.6-.2l-2.4 3.2c.879.66 1.9 1 3 1v-4zm-.2.2a.93.93 0 01-.2-.6h-4c0 1.099.34 2.12 1 3l3.2-2.4zm-.2-.6v-14.4h-4v14.4h4zm0-14.4c0-.705.214-1.185.614-1.586l-2.828-2.828c-1.2 1.199-1.786 2.719-1.786 4.414h4zm.658-1.632c10.164-10.832 21.92-24.125 35.268-39.875l-3.052-2.586c-13.319 15.717-25.029 28.956-35.133 39.725l2.917 2.736zm35.262-39.869l9.4-11-3.041-2.598-9.4 11 3.041 2.598zm9.396-10.995c6.18-7.187 10.869-13.562 14.023-19.116 3.133-5.518 4.861-10.412 4.861-14.588h-4c0 3.157-1.339 7.33-4.339 12.612-2.979 5.246-7.49 11.404-13.578 18.484l3.033 2.608zM178.872 39c0-6.001-2.151-11.021-6.465-14.89l-2.67 2.98c3.419 3.064 5.135 6.978 5.135 11.91h4zm-6.465-14.89c-4.298-3.853-9.803-5.71-16.335-5.71v4c5.735 0 10.23 1.61 13.665 4.69l2.67-2.98zm-16.335-5.71c-6.532 0-12.037 1.857-16.335 5.71l2.67 2.98c3.435-3.08 7.93-4.69 13.665-4.69v-4zm-16.361 5.734c-4.194 3.895-6.239 9.053-6.239 15.266h4c0-5.254 1.688-9.296 4.961-12.334l-2.722-2.932zM133.472 39.4v5.2h4v-5.2h-4zm0 5.2c0 .065-.002.174-.214.386l2.828 2.828c.855-.855 1.386-1.946 1.386-3.214h-4zm-.214.386l.007-.006c.006-.004.009-.004.005-.003a.614.614 0 01-.198.023v4c1.095 0 2.173-.344 3.014-1.186l-2.828-2.828zm-.186.014h-18.6v4h18.6v-4zm-18.6 0a.928.928 0 01-.6-.2l-2.4 3.2c.879.66 1.9 1 3 1v-4zm-.2.2a.93.93 0 01-.2-.6h-4c0 1.1.34 2.12 1 3l3.2-2.4zm-.2-.6V36h-4v8.6h4zm-.001-8.526c.253-6.843 2.208-12.718 5.82-17.7l-3.238-2.348c-4.121 5.684-6.3 12.343-6.58 19.9l3.998.148zm5.82-17.7c3.644-5.026 8.557-8.946 14.8-11.75l-1.638-3.649c-6.824 3.064-12.311 7.41-16.4 13.051l3.238 2.348zM134.677 6.63c6.385-2.81 13.506-4.231 21.395-4.231v-4c-8.378 0-16.057 1.512-23.006 4.57l1.611 3.66zm21.395-4.23c8.684 0 16.166 1.62 22.505 4.789l1.789-3.578C173.372.114 165.255-1.6 156.072-1.6v4zm22.505 4.789c6.362 3.18 11.202 7.535 14.59 13.057l3.41-2.092c-3.812-6.211-9.239-11.057-16.211-14.543l-1.789 3.578zm14.601 13.075c3.387 5.394 5.094 11.487 5.094 18.336h4c0-7.551-1.893-14.391-5.706-20.463l-3.388 2.127zm5.094 18.336c0 10.252-5.461 22.406-16.952 36.538l3.104 2.524c11.709-14.401 17.848-27.447 17.848-39.062h-4zM181.31 75.15c-6.355 7.945-16.85 19.904-31.512 35.899l2.948 2.702c14.671-16.005 25.243-28.046 31.688-36.102l-3.124-2.498zm-31.521 35.908l-7.6 8.4 2.966 2.684 7.6-8.4-2.966-2.684z" fill="#B4977B"/></svg>