<svg width="199" height="145" fill="none" xmlns="http://www.w3.org/2000/svg"><path d="M12.2 132.4l-1.402 1.426.011.011.012.012L12.2 132.4zm0-120.2l1.378 1.45v-.001L12.2 12.2zm66.8 0l-1.379 1.449.012.011.012.011L79 12.2zm0 120.2l1.379 1.449v-.001L79 132.4zM62.2 118l1.39 1.437.013-.011.011-.012L62.2 118zm0-91.4l-1.414 1.414.011.012.012.011L62.2 26.6zm-33 0l1.414 1.414L29.2 26.6zm0 91.4l-1.437 1.391.023.023.023.023L29.2 118zm16.4 24.2c-13.61 0-24.207-3.812-32.021-11.249l-2.758 2.898C19.541 142.146 31.21 146.2 45.6 146.2v-4zm-31.998-11.226C5.92 123.417 2 113.235 2 100.2h-4c0 13.898 4.213 25.183 12.797 33.626l2.805-2.852zM2 100.2V43.8h-4v56.4h4zm0-56.4c0-12.897 3.916-22.865 11.578-30.15l-2.756-2.9C2.217 18.933-2 30.03-2 43.8h4zm11.579-30.151C21.393 6.212 31.99 2.4 45.6 2.4v-4c-14.39 0-26.06 4.054-34.779 12.351l2.758 2.898zM45.6 2.4c13.61 0 24.207 3.812 32.021 11.249l2.758-2.898C71.659 2.454 59.99-1.6 45.6-1.6v4zm32.045 11.271C85.565 20.961 89.6 30.923 89.6 43.8h4c0-13.79-4.364-24.895-13.245-33.071l-2.71 2.942zM89.6 43.8v56.4h4V43.8h-4zm0 56.4c0 13.015-4.04 23.191-11.98 30.752l2.76 2.896c8.86-8.439 13.22-19.73 13.22-33.648h-4zm-11.979 30.751C69.807 138.388 59.21 142.2 45.6 142.2v4c14.39 0 26.06-4.054 34.779-12.351l-2.758-2.898zM45.6 126c7.339 0 13.41-2.13 17.99-6.563l-2.78-2.874C57.122 120.13 52.127 122 45.6 122v4zm18.014-6.586c4.578-4.577 6.786-10.656 6.786-18.014h-4c0 6.509-1.925 11.496-5.614 15.186l2.828 2.828zM70.4 101.4V43h-4v58.4h4zm0-58.4c0-7.356-2.208-13.385-6.81-17.837l-2.78 2.874C64.474 31.585 66.4 36.49 66.4 43h4zm-6.786-17.814C59.037 20.608 52.958 18.4 45.6 18.4v4c6.509 0 11.496 1.925 15.186 5.614l2.828-2.828zM45.6 18.4c-7.237 0-13.244 2.216-17.814 6.786l2.828 2.828C34.311 24.317 39.237 22.4 45.6 22.4v-4zm-17.814 6.786C23.329 29.642 21.2 35.663 21.2 43h4c0-6.53 1.87-11.442 5.414-14.986l-2.828-2.828zM21.2 43v58.4h4V43h-4zm0 58.4c0 7.339 2.13 13.41 6.563 17.991l2.874-2.782c-3.567-3.686-5.437-8.681-5.437-15.209h-4zm6.61 18.037C32.381 123.863 38.381 126 45.6 126v-4c-6.382 0-11.316-1.863-15.01-5.437l-2.78 2.874zM194.671 75.4l1.846-.77-.005-.012-.006-.013-1.835.795zm.6 41.8l-1.86-.735-.01.024-.009.025 1.879.686zm-15.2 19.6l1.08 1.683.011-.007.011-.007-1.102-1.669zm-51.4-.6l-1.151 1.636.017.012.018.011 1.116-1.659zm-15.4-20.4l1.882-.676-.008-.023-.009-.023-1.865.722zm-2.8-16.2h-2v.04l.001.04 1.999-.08zm23.4 0h-2v.062l.004.063 1.996-.125zm2 10.2l1.925-.542-.034-.119-.048-.115-1.843.776zm6.6 10.2l-1.242 1.568.036.028.037.027 1.169-1.623zm30.2-8.4l-1.825-.818-.011.024-.01.025 1.846.769zm-.4-31.8l1.821-.828-.004-.007-.003-.007-1.814.842zm-27.2-7.2l.894 1.789.126-.063.115-.08-1.135-1.646zm-3.4-.8l-1.624 1.167.042.058.045.055 1.537-1.28zm-9.2-12.8l-1.715 1.029.042.071.049.067L132.472 59zm.2-3.4l-1.401-1.427-.007.006-.006.007 1.414 1.414zm33-32.4l1.401 1.427.007-.006.006-.007-1.414-1.414zm.2-.8l1.789-.894-1.789.894zm-52.6-1l-1.6 1.2.171.229.229.171 1.2-1.6zm0-18.6l-1.414-1.414 1.414 1.414zm83.2 0l-1.6 1.2.171.229.229.171 1.2-1.6zm-.4 22l-1.414-1.414-.005.005 1.419 1.409zm-28.6 28.8l1.414 1.414.005-.005-1.419-1.409zm.8 1.2l-.485 1.94.103.026.105.015.277-1.981zm24.554 21.37c2.547 6.113 3.846 13.178 3.846 21.23h4c0-8.48-1.368-16.083-4.154-22.77l-3.692 1.54zm3.846 21.23c0 7.267-1.103 13.609-3.26 19.065l3.72 1.47c2.376-6.011 3.54-12.868 3.54-20.535h-4zm-3.279 19.114c-2.928 8.022-7.735 14.2-14.423 18.617l2.204 3.338c7.445-4.916 12.772-11.805 15.977-20.583l-3.758-1.372zm-14.401 18.603c-6.687 4.29-14.829 6.483-24.52 6.483v4c10.309 0 19.234-2.34 26.68-7.117l-2.16-3.366zm-24.52 6.483c-9.517 0-17.718-2.373-24.684-7.059l-2.232 3.318c7.701 5.181 16.7 7.741 26.916 7.741v-4zm-24.649-7.036c-6.853-4.822-11.737-11.282-14.669-19.44l-3.764 1.352c3.201 8.909 8.584 16.049 16.131 21.36l2.302-3.272zm-14.686-19.486c-1.491-3.852-2.405-9.012-2.667-15.558l-3.997.16c.272 6.787 1.225 12.427 2.934 16.842l3.73-1.444zM112.472 99.6c0-.492.121-.493.014-.386-.107.108-.106-.014.386-.014v-4c-1.108 0-2.307.278-3.214 1.186-.908.907-1.186 2.106-1.186 3.214h4zm.4-.4h18.6v-4h-18.6v4zm18.6 0c.492 0 .493.122.386.014-.108-.107.014-.106.014.386h4c0-1.108-.279-2.307-1.186-3.214-.907-.908-2.106-1.186-3.214-1.186v4zm.404.525c.274 4.38.964 8.029 2.153 10.851l3.686-1.552c-.945-2.245-1.587-5.396-1.847-9.549l-3.992.25zm2.071 10.616c1.303 4.636 3.724 8.409 7.283 11.227l2.483-3.136c-2.841-2.249-4.82-5.276-5.916-9.174l-3.85 1.083zm7.356 11.282c3.719 2.678 8.142 3.977 13.169 3.977v-4c-4.307 0-7.884-1.101-10.832-3.223l-2.337 3.246zm13.169 3.977c4.708 0 8.827-1.073 12.251-3.33 3.425-2.259 6.005-5.605 7.795-9.901l-3.692-1.538c-1.544 3.704-3.664 6.358-6.305 8.099-2.643 1.743-5.957 2.67-10.049 2.67v4zm20.025-13.182c1.888-4.212 2.775-9.519 2.775-15.818h-4c0 5.968-.847 10.661-2.425 14.182l3.65 1.636zm2.775-15.818c0-6.977-1.023-12.884-3.179-17.628l-3.642 1.656c1.844 4.056 2.821 9.35 2.821 15.972h4zm-3.186-17.642c-1.87-4.027-4.476-7.152-7.858-9.256-3.377-2.102-7.394-3.102-11.956-3.102v4c3.971 0 7.221.866 9.843 2.498 2.618 1.63 4.746 4.104 6.343 7.544l3.628-1.684zM154.272 66.6c-2.922 0-6.427 1.658-10.336 4.354l2.271 3.292c3.825-2.637 6.453-3.646 8.065-3.646v-4zm-10.095 4.211c-.18.09-.313.14-.405.166-.091.026-.121.023-.1.023v4c.825 0 1.608-.268 2.294-.611l-1.789-3.578zm-.505.189c.086 0 .104.03.029-.015-.088-.053-.257-.183-.493-.465l-3.073 2.56c.833 1 2.009 1.92 3.537 1.92v-4zm-.376-.367l-9.2-12.8-3.248 2.334 9.2 12.8 3.248-2.334zm-9.109-12.662a3.631 3.631 0 01-.292-.573c-.049-.13-.023-.116-.023.002h-4c0 .968.444 1.895.885 2.629l3.43-2.058zm-.315-.571c0-.065.002-.174.214-.386l-2.828-2.828c-.855.855-1.386 1.946-1.386 3.214h4zm.201-.373l33-32.4-2.802-2.854-33 32.4 2.802 2.854zm33.013-32.413c.298-.298.628-.737.776-1.329a2.569 2.569 0 00-.201-1.78l-3.578 1.79a1.438 1.438 0 01-.101-.98 1.14 1.14 0 01.276-.53l2.828 2.83zm.575-3.108c-.589-1.178-1.734-1.506-2.589-1.506v4c-.009 0-.172 0-.395-.111a1.35 1.35 0 01-.594-.595l3.578-1.788zM165.072 20h-50v4h50v-4zm-50 0a.928.928 0 01-.6-.2l-2.4 3.2c.879.66 1.9 1 3 1v-4zm-.2.2a.931.931 0 01-.2-.6h-4c0 1.1.34 2.12 1 3l3.2-2.4zm-.2-.6V4.4h-4v15.2h4zm0-15.2c0-.134.02-.19.023-.198.001-.004 0-.001-.003.005l-.006.007-2.828-2.828c-.842.841-1.186 1.919-1.186 3.014h4zm.014-.186c.212-.212.321-.214.386-.214V0c-1.269 0-2.36.531-3.214 1.386l2.828 2.828zm.386-.214h79.8V0h-79.8v4zm79.8 0c.033 0 .045.003.041.002a.12.12 0 01-.013-.004l-.023-.01a.206.206 0 01-.021-.011l-.011-.008c-.003-.003.007.005.027.031l3.2-2.4a3.898 3.898 0 00-3.2-1.6v4zm.4.4c.026.02.034.03.031.027l-.008-.011a.19.19 0 01-.012-.022l-.01-.022a.066.066 0 01-.003-.013c-.001-.004.002.008.002.041h4a3.897 3.897 0 00-1.6-3.2l-2.4 3.2zm0 0v17.4h4V4.4h-4zm0 17.4c0 .705-.214 1.185-.614 1.586l2.828 2.828c1.2-1.2 1.786-2.72 1.786-4.414h-4zm-.619 1.59l-28.6 28.8 2.838 2.82 28.6-28.8-2.838-2.82zm-28.595 28.796c-.253.252-.595.663-.759 1.24a2.372 2.372 0 00.309 1.983c.338.507.798.794 1.119.955.343.171.712.29 1.06.376l.97-3.88c-.185-.047-.25-.079-.241-.074a.8.8 0 01.129.085c.071.056.183.158.291.32.262.393.335.892.209 1.333a1.353 1.353 0 01-.172.38.754.754 0 01-.087.11l-2.828-2.828zm1.937 4.595c11.673 1.631 19.904 8.02 24.842 19.414l3.67-1.59c-5.462-12.605-14.831-19.95-27.958-21.786l-.554 3.962z" fill="#B4977B"/></svg>