<svg width="26" height="28" fill="none" xmlns="http://www.w3.org/2000/svg"><path d="M19 11h-3v-1a4 4 0 10-8 0v1H5a1 1 0 00-1 1v11a3 3 0 003 3h10a3 3 0 003-3V12a1 1 0 00-1-1zm-9-1a2 2 0 114 0v1h-4v-1zm8 13a1 1 0 01-1 1H7a1 1 0 01-1-1V13h2v1a1 1 0 102 0v-1h4v1a1 1 0 002 0v-1h2v10z" fill="#050215"/><circle cx="21" cy="5" r="5" fill="#050215"/><path d="M20.9 2.818a.178.178 0 01.09-.018h.726c.02 0 .036.008.048.024a.057.057 0 01.024.048v4.056c0 .02-.008.038-.024.054a.065.065 0 01-.048.018h-.702a.088.088 0 01-.054-.018.088.088 0 01-.018-.054V3.64c0-.008-.004-.016-.012-.024s-.016-.01-.024-.006l-.594.162-.024.006c-.036 0-.054-.022-.054-.066l-.018-.516c0-.04.018-.068.054-.084l.63-.294z" fill="#fff"/></svg>