<svg width="161" height="146" fill="none" xmlns="http://www.w3.org/2000/svg"><g opacity=".5"><mask id="mask0_705_35" style="mask-type:alpha" maskUnits="userSpaceOnUse" x="0" y="0" width="161" height="242"><path fill-rule="evenodd" clip-rule="evenodd" d="M117.571 127.5l4.965-4.964 34 34 3.535-3.536-34-34 30.465-30.465L153 85l-30.464 30.464-4.965-4.964 38.965-38.965L153 68l-38.964 38.964-4.965-4.964 47.465-47.465L153 51l-47.464 47.465-4.965-4.965 55.965-55.965L153 34 97.035 89.965 92.072 85l64.465-64.465L153 17 88.535 81.465 83.572 76.5l72.965-72.964L153 0 80.035 72.965 7.072 0 3.536 3.536 76.5 76.5l-4.965 4.965L7.072 17l-3.535 3.535L68 85l-4.965 4.965L7.072 34l-3.535 3.535L59.5 93.5l-4.965 4.965L7.072 51l-3.535 3.535L51 102l-4.965 4.964L7.072 68l-3.535 3.535L42.5 110.5l-4.965 4.964L7.072 85l-3.535 3.535L34 119 0 153l3.536 3.536 34-34L42.5 127.5 0 170l3.536 3.536 42.5-42.5L51 136 0 187l3.536 3.536 51-51L59.5 144.5 0 204l3.536 3.536 59.5-59.5L68 153 0 221l3.536 3.536 68-68L76.5 161.5 0 238l3.536 3.536 76.5-76.5 76.5 76.5 3.535-3.536-76.5-76.5 4.965-4.964 68 68 3.535-3.536-68-68 4.965-4.964 59.5 59.5 3.535-3.536-59.5-59.5 4.965-4.964 51 51 3.535-3.536-51-51 4.965-4.964 42.5 42.5 3.535-3.536-42.5-42.5zm-76.5-8.5l4.965 4.964L51 119l-4.965-4.964L41.072 119zm8.5-8.5l4.965 4.964L59.5 110.5l-4.965-4.964-4.964 4.964zm8.5-8.5l4.965 4.964L68 102l-4.965-4.965L58.072 102zm8.5-8.5l4.965 4.965L76.5 93.5l-4.965-4.965-4.964 4.965zm8.5-8.5l4.965 4.965L85 85l-4.965-4.965L75.072 85zm38.965 38.964L119 119l-4.964-4.964-4.965 4.964 4.965 4.964zm-8.5-18.428l4.964 4.964-4.964 4.964-4.965-4.964 4.965-4.964zm-8.5-8.5L102 102l-4.965 4.964L92.072 102l4.965-4.965zm-8.5-8.5L93.5 93.5l-4.965 4.965-4.964-4.965 4.965-4.965zm-8.5 8.5L75.07 102l4.965 4.964L85 102l-4.965-4.965zm-8.5 8.5L66.57 110.5l4.965 4.964L76.5 110.5l-4.965-4.964zm-8.5 8.5L58.07 119l4.965 4.964L68 119l-4.965-4.964zm-8.5 8.5L49.57 127.5l4.965 4.964L59.5 127.5l-4.965-4.964zm51 0l4.964 4.964-4.964 4.964-4.965-4.964 4.965-4.964zm-8.5-8.5L102 119l-4.965 4.964L92.072 119l4.965-4.964zm-8.5-8.5L93.5 110.5l-4.965 4.964-4.964-4.964 4.965-4.964zM58.07 136l4.965 4.964L68 136l-4.965-4.964L58.072 136zm8.5-8.5l4.965 4.964L76.5 127.5l-4.965-4.964-4.964 4.964zm8.5-8.5l4.965 4.964L85 119l-4.965-4.964L75.072 119zm21.965 21.964L102 136l-4.965-4.964L92.072 136l4.965 4.964zm-8.5-18.428L93.5 127.5l-4.965 4.964-4.964-4.964 4.965-4.964zm-8.5 8.5L75.07 136l4.965 4.964L85 136l-4.965-4.964zm-8.5 8.5L66.57 144.5l4.965 4.964L76.5 144.5l-4.965-4.964zm17 0L93.5 144.5l-4.965 4.964-4.964-4.964 4.965-4.964zm-8.5 8.5L75.07 153l4.965 4.964L85 153l-4.965-4.964z" fill="#E5E5E5"/></mask><g mask="url(#mask0_705_35)"><circle cx="80.035" cy="118.036" r="72.5" fill="#E5E5E5"/></g></g></svg>