<svg width="130" height="195" fill="none" xmlns="http://www.w3.org/2000/svg"><g opacity=".5"><mask id="mask0_3_81" style="mask-type:alpha" maskUnits="userSpaceOnUse" x="0" y="0" width="130" height="195"><path fill-rule="evenodd" clip-rule="evenodd" d="M126.424 126.424L99.116 99.116l-3.292 3.291 34.136 34.136-3.536 3.536-34.136-34.136-3.291 3.291 40.963 40.963-3.536 3.536-40.963-40.963-3.291 3.292 47.79 47.79-3.536 3.535-47.79-47.79-3.291 3.292 54.617 54.617-3.536 3.536-54.617-54.618-3.292 3.292 61.445 61.444-3.536 3.536-61.444-61.445-61.444 61.445L0 191.16l61.444-61.444-3.291-3.292-54.617 54.618L0 177.506l54.617-54.617-3.291-3.292-47.79 47.79L0 163.852l47.79-47.79-3.291-3.292-40.963 40.963L0 150.197l40.963-40.963-3.292-3.291-34.135 34.136L0 136.543l34.136-34.136-3.292-3.291-27.308 27.308L0 122.889 27.309 95.58 3.536 71.807l3.535-3.535 23.773 23.773 3.292-3.292-30.6-30.6 3.535-3.536 30.6 30.6 3.292-3.291L3.536 44.498l3.535-3.535L44.498 78.39l3.292-3.29L3.536 30.844 7.07 27.31l44.255 44.254 3.291-3.291L3.536 17.19l3.535-3.536 51.082 51.082 3.291-3.292L3.536 3.536 7.07 0l57.91 57.909L122.889 0l3.535 3.536-57.909 57.908 3.292 3.292 51.082-51.082 3.535 3.536-51.081 51.08 3.291 3.292L122.89 27.31l3.535 3.535L82.17 75.1l3.291 3.291 37.428-37.427 3.535 3.535-37.427 37.428 3.291 3.291 30.601-30.6 3.535 3.536-30.6 30.6 3.292 3.292 23.773-23.773 3.535 3.535-23.773 23.773 27.309 27.309-3.536 3.535zM64.98 64.98l-3.292 3.291 3.292 3.292 3.291-3.291-3.291-3.292zm-6.827 6.827L54.86 75.1l3.292 3.291 3.291-3.291-3.291-3.292zm-6.827 6.827l-3.292 3.292 3.292 3.291 3.291-3.291-3.291-3.292zm-6.828 6.827l-3.291 3.292 3.291 3.292 3.292-3.292-3.292-3.292zm-6.827 6.828L34.38 95.58l3.291 3.292 3.292-3.292-3.292-3.291zm54.617 0l3.292 3.291-3.291 3.292-3.292-3.292 3.291-3.291zm-6.827-6.828l3.292 3.292-3.292 3.292-3.291-3.292 3.291-3.292zm-6.827-6.827l3.292 3.292-3.292 3.291-3.291-3.291 3.291-3.292zm-6.827-6.827L75.1 75.1l-3.292 3.291-3.292-3.291 3.292-3.292zm-6.827 6.827l-3.292 3.292 3.292 3.291 3.291-3.291-3.291-3.292zm-6.827 6.827l-3.292 3.292 3.292 3.292 3.291-3.292-3.291-3.292zm-6.827 6.828l-3.292 3.291 3.292 3.292 3.291-3.292-3.291-3.291zm-6.828 6.827l-3.291 3.291 3.291 3.292 3.292-3.292-3.292-3.291zm40.963 0l3.292 3.291-3.292 3.292-3.291-3.292 3.291-3.291zm-6.827-6.828l3.292 3.292-3.292 3.292-3.291-3.292 3.291-3.291zm-6.827-6.827l3.292 3.292-3.292 3.292-3.292-3.292 3.292-3.292zm-23.773 23.773l3.292 3.292 3.291-3.292-3.291-3.291-3.292 3.291zm6.827-6.827l3.292 3.292 3.291-3.292-3.291-3.291-3.292 3.291zm6.827-6.827l3.292 3.292 3.291-3.292-3.291-3.291-3.292 3.291zm16.946 16.946l3.292-3.292-3.292-3.291-3.291 3.291 3.291 3.292zm-6.827-13.41l3.292 3.291-3.292 3.292-3.292-3.292 3.292-3.291zm-6.827 6.827l-3.292 3.291 3.292 3.292 3.291-3.292-3.291-3.291zm-6.827 6.827l-3.292 3.292 3.292 3.291 3.291-3.291-3.291-3.292zm13.654 0l3.292 3.292-3.292 3.291-3.292-3.291 3.292-3.292zm-6.827 6.827l-3.292 3.292 3.292 3.291 3.291-3.291-3.291-3.292z" fill="#E5E5E5"/></mask><g mask="url(#mask0_3_81)"><circle cx="64.98" cy="95.501" r="58.232" fill="#E5E5E5"/></g></g></svg>